<svg fill="#fff" viewBox="0 0 300 300" width="300" height="300" xmlns="http://www.w3.org/2000/svg" xmlns:x="http://www.w3.org/1999/xlink">
    <defs>
        <path id="nimiq" transform="translate(-14,-16)" d="M22.46 0H9.54a3 3 0 0 0-2.6 1.51l-6.29 11a3 3 0 0 0 0 2.98l6.29 11A3 3 0 0 0 9.54 28h12.92a3 3 0 0 0 2.6-1.51l6.29-11a3 3 0 0 0 0-2.98l-6.29-11A3 3 0 0 0 22.46 0zM17.5 22v3H15v-2.6c-1.5 0-3.3-.8-4.5-2l1.7-2.4c1.3 1 2.4 1.5 3.6 1.5 1.4 0 2-.6 2-1.7 0-2.6-6.7-2.6-6.7-7 0-2.6 2-4.3 4-4.8V3.2h3v2.6c1.8.2 3 1 4 2L20 10c-1-1-1.7-1.3-2.8-1.3-1.2 0-2 .5-2 1.6 0 2.4 7 2.2 7 7 0 2.4-1.5 4.3-4 4.8l-.7-.1z" fill="#F6AE2D" />
    </defs>
    <use x="100" y="100" href="#nimiq" />
    <use x="200" y="100" href="#nimiq" />
    <use x="100" y="200" href="#nimiq" />
    <use x="200" y="200" href="#nimiq" />
    <use x="150" y="150" href="#nimiq" />
</svg>