<?xml version="1.0" encoding="UTF-8" standalone="no"?>
<svg
   xmlns:dc="http://purl.org/dc/elements/1.1/"
   xmlns:cc="http://creativecommons.org/ns#"
   xmlns:rdf="http://www.w3.org/1999/02/22-rdf-syntax-ns#"
   xmlns:svg="http://www.w3.org/2000/svg"
   xmlns="http://www.w3.org/2000/svg"
   xmlns:xlink="http://www.w3.org/1999/xlink"
   height="550"
   width="300"
   id="svg987"
   version="1.1"
   viewBox="0 0 300 550">
  <metadata
     id="metadata991">
    <rdf:RDF>
      <cc:Work
         rdf:about="">
        <dc:format>image/svg+xml</dc:format>
        <dc:type
           rdf:resource="http://purl.org/dc/dcmitype/StillImage" />
        <dc:title></dc:title>
      </cc:Work>
    </rdf:RDF>
  </metadata>
  <defs
     id="defs925">
    <path
       d="M 115.703,0.406 H 0.508 V 248.66 h 115.195 z"
       id="a" />
    <path
       d="M 0,437 H 259 V 1 H 0 Z"
       id="c" />
  </defs>
  <g
     transform="translate(64.99999,163.595)"
     style="fill:none;fill-rule:evenodd"
     id="g985">
    <path
       style="fill:#d1aa8f"
       id="path929"
       d="m 45.005766,386.64525 c 0,0 52.002234,-196.29625 55.765234,-206.14125 8.62,-22.534 19.65,-43.876 19.65,-43.876 50.05,-17.222 75.58,-101.350004 75.58,-101.350004 L 97.43,-39.000004 0.81882353,387.20706 Z M 194.874,88.753996 c 0,0 5.352,14.330004 19.065,15.157004 1,0.06 3.88,0.37 3.95,-0.63 0.85,-12.290004 -3.58,-42.270004 -3.58,-42.270004 l -23.309,3.749 z" />
    <path
       style="fill:#f1f1f2"
       id="path931"
       d="m 217.773,103.99 -7.7,-6.328004 c -0.324,-8.207 0.292,-12.47 4.86,-12.662 2.047,-0.086 3.685,19.507004 2.84,18.990004" />
    <path
       style="fill:#e4ba9b"
       id="path933"
       d="m 200.7,62.009996 c 0,0 11.2,8.668 23.987,5.15 0.972,-0.27 3.66,-1.424 3.276,-2.36 -4.748,-11.535 -11.387,-36.307 -12.397,-37.245 -6.548,-6.08 -35.566,-2.518 -35.566,-2.518 l 20.7,36.974 z" />
    <path
       style="fill:#f1f1f2"
       id="path935"
       d="m 227.986,63.999996 -10.794,-4.906 c -2.824,-9.73 -3.456,-14.944 1.356,-16.085 2.153,-0.51 9.827,20.26 9.438,20.99" />
    <path
       style="fill:#e4ba9b"
       id="path937"
       d="m 212.81,14.704996 c 5.282,0.43 13.112,1.645 20.767,-7.8280005 0.583,-0.717 1.972,-3.018 1.19,-3.51 -9.643,-6.04 -28.954,-21.0829995 -28.954,-21.0829995 l -16.728,-1.284 L 178,-0.53600449 c 0,0 25.185,14.45700049 34.81,15.24000049" />
    <path
       style="fill:#f1f1f2"
       id="path939"
       d="m 234.998,3.8869955 c -1.384,0.9 -8.85,-3.873 -8.85,-3.873 -8.55,-6.293 -12.606,-10.3700005 -10.674,-9.99 0.342,0.07 19.753,13.714 19.524,13.863" />
    <path
       style="fill:#d1aa8f"
       id="path941"
       d="m 210.01,-94.103004 c -10.626,-9.624996 -22.645,6.647 -34.415,20.826 -2.297,2.768 -5.595,13.275 -5.595,13.275 l 19.043,17.002 c 0,0 34.04,-39.264 20.968,-51.103" />
    <g
       id="g948"
       transform="translate(112)">
      <mask
         fill="#fff"
         id="b">
        <use
           height="100%"
           width="100%"
           y="0"
           x="0"
           id="use943"
           xlink:href="#a" />
      </mask>
      <path
         style="fill:#231f20"
         id="path946"
         d="m -7.66,84.659996 c -8.73,0 -15.832,-6.95 -15.832,-15.49 V -148.105 c 0,-8.538 7.102,-15.49 15.83,-15.49 h 83.536002 c 8.727998,0 15.829998,6.95 15.829998,15.49 V 69.169996 c 0,5.756 -3.226,10.788 -8,13.458 -2.31,1.293 -4.984,2.03 -7.829998,2.03 H -7.66 Z" />
    </g>
    <mask
       fill="#fff"
       id="d">
      <use
         height="100%"
         width="100%"
         y="0"
         x="0"
         id="use950"
         xlink:href="#c" />
    </mask>
    <path
       style="fill:#ffffff"
       id="path953"
       d="M 94,50.999996 H 197 V -130 H 94" />
    <g
       transform="translate(-24,-164)"
       id="g975">
      <path
         style="fill:#ffffff"
         id="path955"
         d="m 189.268,142.67 h 2.123 v -2.166 h -2.12 v 2.165 z m -11.34,-31.81 H 193.67 V 95.135 h -15.74 v 15.727 z m -31.77,0.03 h 15.724 V 95.15 h -15.725 v 15.74 z m 0.002,31.782 h 15.718 V 126.904 H 146.16 Z m 27.173,-40.67 c 0.714,-0.05 1.43,-0.096 2.19,-0.146 v -2.31 h -2.23 V 97.33 h 2.205 v -2.168 h -4.38 v 4.354 c 0.77,0 1.487,0 2.202,0.002 0.015,0.837 0.03,1.674 0.04,2.508 -0.74,-0.04 -1.478,-0.083 -2.227,-0.124 v 2.263 h 2.14 v 2.256 h -2.145 v 2.29 l 0.03,-0.03 h -2.456 v 2.19 h -2.207 v -6.73 h 2.174 v -8.99 h -2.19 v 2.24 h -2.2 v 4.5 l 2.24,0.1 v 2.19 h -2.32 v 9.07 h -4.41 v 2.31 h 4.36 v 2.14 h -6.8 v -2.2 h -2.23 v -2.19 h -2.25 v 4.39 c -0.85,0 -1.57,0 -2.3,0.01 v -4.38 h -4.46 v 4.35 h 4.49 v 2.44 h 4.5 v 2.18 h -8.97 v 2.27 h 8.94 v -2.31 h 2.18 l -0.03,-0.02 0.22,2.4 h 6.78 v 4.43 l 2.19,0.1 v 4.53 h -2.16 v 2.24 h 4.38 v 2.32 h -4.38 v 4.43 h 4.47 v -2.24 h 2.36 v 2.23 h 4.42 l 0.1,-2.233 h 4.4 v -2.187 h -4.48 v -2.366 h -2.28 v -4.404 h 4.61 v 2.23 h 2.22 v 2.25 c 0.88,-0.06 1.66,-0.117 2.43,-0.168 v 6.904 h 2.12 v -4.45 h 4.56 v -2.26 h 2.235 v 2.23 h 2.194 v -6.69 h -2.23 v 2.18 h -4.556 v 2.12 h -4.34 l -0.13,-2.14 h 2.17 v -4.59 h -2.08 v -2.21 h 2.15 v -4.57 h 2.25 v -2.19 h 2.36 v 4.44 l -2.31,0.11 v 4.39 h 4.45 v -2.11 l -0.023,0.03 2.27,-0.15 v -2.174 l -2.22,-0.1 v -4.44 h 2.24 v -4.54 l -2.27,-0.1 v -2.17 h -4.46 l -0.1,2.245 h -2.19 v -2.23 h -6.75 v 4.42 h -4.58 v 2.408 h -2.19 v 2.19 h -2.4 v -4.62 l -0.02,0.03 h 2.38 v -4.52 h 4.436 v -9.01 h -2.26 c 0.03,-0.73 0.055,-1.46 0.084,-2.19 z M 137,152 h 66 V 86 h -66 z" />
      <path
         style="fill:#000000"
         id="path957"
         d="m 150.583,117.674 h 2.296 v -4.39 h 2.24 v 2.187 h 2.22 v 2.2 h 6.79 v -2.14 h -4.36 v -2.3 h 4.41 v -9.06 h 2.32 l -0.03,-0.03 v 6.73 h 2.2 v -2.19 h 2.45 c -0.04,0.74 -0.07,1.48 -0.1,2.18 h 2.18 v -2.15 h -2.11 v -2.28 h 2.14 v -2.25 l -0.03,0.03 h 2.26 v 9.01 h -4.438 v 4.52 h -2.38 v -2.18 h -2.18 v -2.25 h -2.2 v 2.22 h 2.23 l -0.09,2.14 -2.12,0.18 c -0.24,2.56 -0.34,2.38 2.1,2.14 v -2.33 c 0.77,0.03 1.53,0.05 2.29,0.07 v 4.62 h 2.406 l -0.036,-0.03 v 2.23 h 2.22 v -2.23 l -0.03,0.03 h 2.24 v 2.28 h -2.233 v 2.32 h -2.14 v 2.1 h 4.463 v -2.06 h 2.26 v 4.54 l 0.03,-0.027 h -4.615 v 4.404 l 0.025,-0.02 -2.22,0.1 v 4.52 l 0.034,-0.035 h -2.36 v 2.24 h -4.478 v -4.425 h 4.38 v -2.32 h -4.383 v -2.25 h 2.16 v -4.53 l -2.19,-0.1 v -4.43 h -6.78 c -0.08,-0.9 -0.15,-1.65 -0.213,-2.398 h 4.625 v -2.08 h -4.43 l -0.17,2.1 h -2.18 l 0.03,0.03 v -2.174 h -4.5 v -2.44 l -0.03,0.03 z" />
      <path
         style="fill:#000000"
         id="path959"
         d="m 148.414,140.36 h 11.236 v -11.23 h -11.236 v 11.227 z m -2.254,2.312 h 15.718 V 126.904 H 146.16 Z m 2.28,-34.02 h 11.197 V 97.385 H 148.44 Z m -2.283,2.236 h 15.725 v -15.74 h -15.725 z m 34.007,-2.198 h 11.2 V 97.42 h -11.2 z m -2.235,2.17 h 15.74 V 95.135 h -15.74 v 15.727 z m 6.71,11.415 v 4.568 h -2.16 v 2.21 h 2.08 v 4.583 h -2.16 c 0.05,0.787 0.09,1.464 0.13,2.142 l 0.01,-0.02 c -0.78,0.055 -1.56,0.11 -2.44,0.17 v -2.248 h -2.23 v -2.23 l -0.02,0.027 2.16,-0.1 v -6.75 l -2.11,-0.095 v -2.177 h 2.17 v 2.163 h 2.36 v -2.214 h 2.21 l -0.03,-0.03 z" />
      <path
         style="fill:#000000"
         id="path961"
         d="m 184.643,115.527 h 2.186 l 0.09,-2.245 h 4.46 v 2.163 l 2.27,0.102 v 4.538 h -2.24 l 0.02,0.027 v -2.317 h -2.22 v 2.317 l 0.03,-0.027 h -2.36 v 2.19 h -2.26 l 0.03,0.028 v -6.806 l -0.03,0.03 z m -2.11,20.25 h 4.347 v -2.12 h 4.554 v -2.175 h 2.226 v 6.696 h -2.194 v -2.23 h -2.237 v 2.26 h -4.56 v 4.458 h -2.13 v -6.906 l -0.02,0.018" />
      <path
         style="fill:#000000"
         id="path963"
         d="m 191.422,120.085 v 4.44 l 2.22,0.1 v 2.177 l -2.272,0.15 v -2.298 h -2.087 v 2.162 l 2.112,0.105 v 2.12 h -4.448 v -4.39 l 2.31,-0.11 v -4.44 l -0.028,0.03 h 2.21 l -0.03,-0.02 z m -24.9,-15.925 v -2.186 l -2.24,-0.1 V 97.38 h 2.203 v -2.24 h 2.184 v 8.99 h -2.18 l 0.03,0.03 m 6.75,31.696 h 2.28 v 2.364 h 4.48 v 2.184 h -4.4 l -0.1,2.236 h -4.42 v -2.224 l -0.04,0.033 h 4.41 v -2.26 h -2.19 v -2.36 l -0.03,0.02 z m -18.19,-13.63 v 2.306 h -8.94 v -2.27 h 8.97 c 0,-0.002 -0.03,-0.036 -0.03,-0.036 m -4.48,-4.582 h -4.49 v -4.347 h 4.45 v 4.378 l 0.03,-0.03 m 27.27,0.065 v -4.42 h 6.75 v 2.237 l 0.03,-0.03 h -4.63 v 2.192 h -2.18 m -4.54,-18.18 h -2.2 v -4.35 h 4.38 v 2.17 h -2.21 v 2.21 m 0.01,20.57 v -2.41 h 4.59 l -0.03,-0.02 v 2.39 h -4.59 l 0.03,0.03 z m -0.01,-20.57 h 2.23 v 2.31 l -2.19,0.14 0.03,0.03 c -0.02,-0.84 -0.03,-1.68 -0.05,-2.51 l -0.03,0.02 m 15.97,43.12 h 2.12 v -2.16 h -2.12" />
      <path
         style="fill:#000000"
         id="path965"
         d="m 171.117,122.306 v -2.19 h 2.19 l -0.03,-0.03 v 2.217 l 0.026,-0.027 h -2.218 z M 173.332,102 c -0.028,0.732 -0.056,1.462 -0.086,2.194 l 0.027,-0.03 h -2.14 v -2.262 l 2.23,0.125 -0.03,-0.026" />
      <path
         style="fill:#ffffff"
         id="path967"
         d="m 173.276,122.303 v -2.218 h 4.588 v -2.396 h 2.177 v -2.2 h 4.63 v 6.8 h -2.22 v 2.21 h -2.35 v -2.17 h -2.17 v 2.17 l 2.11,0.09 v 6.75 l -2.15,0.1 v -4.54 h -2.26 v 2.1 h -4.46 v -2.1 h 2.14 v -2.32 h 2.24 v -2.28 h -2.24 z m 0.027,13.53 v 2.36 h 2.19 v 2.256 h -4.408 v -4.52 l 2.218,-0.1 m -16.035,-13.61 0.173,-2.1 h 4.43 v 2.08 h -4.62 l 0.02,0.01 m 9.16,-4.62 v 2.33 c -2.44,0.24 -2.33,0.42 -2.1,-2.14 l 2.13,-0.18 -0.02,-0.02" />
      <path
         style="fill:#ffffff"
         id="path969"
         d="m 171.085,122.276 h 2.218 v 2.23 h -2.218 z m -2.372,-4.588 -2.287,-0.072 c -0.002,0 0.024,0.022 0.022,0.02 l 0.08,-2.136 -0.026,0.028 h 2.185 v 2.186 z" />
      <path
         style="fill:#ffffff"
         id="path971"
         d="m 166.53,115.5 h -2.232 v -2.217 h 2.203 c 0,0.756 0,1.5 0.01,2.245 l 0.03,-0.028 m 4.6,-6.794 h 2.12 v 2.15 h -2.18 c 0.03,-0.702 0.07,-1.44 0.1,-2.18 0,-0.002 -0.03,0.03 -0.03,0.03 m -20.5,29.457 h 6.67 v -6.686 h -6.67 z m -2.21,2.196 h 11.24 v -11.23 h -11.24 v 11.22 z m 2.23,-34.03 h 6.65 v -6.7 h -6.64 v 6.7 z m -2.2,2.32 h 11.2 V 97.38 h -11.2 v 11.268 z m 34.06,-2.33 h 6.65 v -6.7 h -6.65 z m -2.33,2.36 h 11.2 V 97.42 h -11.2 v 11.27 z m 11.29,11.42 h -2.22 v -2.32 h 2.22 v 2.31 z m -0.05,6.81 -2.112,-0.11 v -2.16 h 2.09 v 2.29 l 0.027,-0.03" />
      <path
         style="fill:#000000"
         id="path973"
         d="m 150.63,138.163 h 6.667 v -6.686 h -6.668 m 0.01,-25.147 h 6.64 v -6.7 h -6.65 m 31.85,6.7 h 6.64 v -6.7 h -6.65" />
    </g>
    <path
       style="fill:#9ef553"
       id="path977"
       d="M 113.62,-78.000004 H 113 v 18 h 2.478 v -15.545 H 132 v -2.455 z m 65.38,1.227 v 16.773 h -2.478 v -15.545 H 160 v -2.455 h 19 z m -66,63.546 v -16.773 h 2.478 v 15.545 H 132 v 2.455 h -19 z m 64.76,1.227 H 179 v -18 h -2.478 v 15.545 H 160 v 2.455 z" />
    <path
       style="fill:#333333"
       id="path979"
       d="m 157,66.999996 c 0,6.073 -4.923,11 -11,11 -6.075,0 -11,-4.927 -11,-11 0,-6.075 4.925,-11 11,-11 6.077,0 11,4.925 11,11" />
    <path
       style="fill:#e4ba9b"
       id="path981"
       d="m 79.733,-68.000004 c 0,0 11.734,4.074 16.266,12.45 2.1,3.888 7.78,13.424 3.29,41.55 -1.54,9.6459995 -10.25,34.284 -10.83,37.106 -0.97,4.71 0.18,8.022 0.18,8.022 0,0 6.55,11.32 14.86,29.88 5.63,12.578 7.85,42.257004 2.19,59.680004 -0.94,2.888 -14.26,21.596 -20.21,36.937 -17.02,43.88 -69.183377,229.34238 -69.183377,229.34238 l -81.268307,-0.5471 c 0,0 67.498684,-168.59528 82.802684,-204.60028 18.98,-44.658 21.503,-66.432 22.145,-78.46 0.95,-17.840004 4.424,-56.667004 5.637,-61.714004 1.63,-6.777 6.442,-12.604 8.985,-17.637 19.014,-37.64 21.297002,-61.82 21.297002,-61.82 l 3.839998,-30.19 z" />
    <path
       style="fill:#f1f1f2"
       id="path983"
       d="m 79.763,-67.852004 c 0,0 0.222,-0.404 0.43,0.122 0.65,1.645 1.895,6.632 1.802,14.457 -0.23,19.08 -5.995,16.105 -5.995,16.105 z" />
  </g>
</svg>
