<?xml version="1.0" encoding="utf-8"?>
<!-- Generator: Adobe Illustrator 16.0.0, SVG Export Plug-In . SVG Version: 6.00 Build 0)  -->
<!DOCTYPE svg PUBLIC "-//W3C//DTD SVG 1.1//EN" "http://www.w3.org/Graphics/SVG/1.1/DTD/svg11.dtd">
<svg version="1.1" id="Layer_1" xmlns="http://www.w3.org/2000/svg" xmlns:xlink="http://www.w3.org/1999/xlink" x="0px" y="0px"
	 width="160px" height="160px" viewBox="0 0 24 24" enable-background="new 0 0 24 24" xml:space="preserve" fill="white">
<g>
	<g>
		<g>
			<g>
				<path d="M9.951,17.416c0.564,0.331,1.653,0.434,2.497,0.115c-0.11-0.054-0.208-0.129-0.287-0.226l0,0
					c-0.167-0.199-0.226-0.449-0.188-0.687c-0.417,0.128-0.848,0.117-1.13,0.056L9.951,17.416z"/>
				<path d="M16.251,15.526c0.164-0.121,0.199-0.355,0.076-0.521c-0.122-0.164-0.355-0.199-0.518-0.078l-0.161,0.118l-0.358-0.489
					l0.157-0.117c0.167-0.123,0.2-0.358,0.079-0.522c-0.123-0.166-0.356-0.201-0.522-0.078l-0.454,0.335
					c-0.023,0.017-0.044,0.039-0.064,0.061c-0.002,0.002-0.004,0.003-0.006,0.005c-0.207,0.152-0.25,0.442-0.097,0.648l0.038,0.051
					l-1.273,0.941l-0.005,0.056c0.137,0.051,0.263,0.136,0.362,0.257c0.009,0.013,0.019,0.026,0.028,0.039
					c0.113,0.153,0.168,0.331,0.17,0.51l1.327-0.981l0.044,0.059c0.149,0.207,0.44,0.248,0.645,0.097
					c0.013-0.009,0.024-0.02,0.037-0.031c0.013-0.009,0.029-0.014,0.04-0.025L16.251,15.526z M15.794,15.861"/>
				<circle cx="12.802" cy="16.772" r="0.561"/>
			</g>
			<g>
				<path d="M10.129,11.353"/>
				<path d="M11.723,12.946"/>
				<path d="M9.426,15.085l0.487-0.487l0.62,0.62c0,0,3.411-2.122,2.767-2.767l-0.653-0.653c0.031-0.212-0.141-0.575-0.448-0.946
					l-0.176-0.195c-0.009-0.01-0.017-0.017-0.025-0.025c-0.006-0.007-0.014-0.015-0.022-0.022c0.137-0.26,0.502-1.082,0.137-1.74
					c0.058-0.152,0.028-0.331-0.096-0.455c-0.168-0.168-0.439-0.166-0.606,0.001c-0.166,0.166-0.169,0.438-0.001,0.606
					c0.141,0.141,0.357,0.162,0.521,0.064c0.202,0.491-0.032,1.088-0.153,1.348c-0.369-0.309-0.736-0.48-0.948-0.449l-0.651-0.651
					c-0.645-0.645-2.764,2.765-2.764,2.765l0.619,0.619l-0.488,0.488l-1.276-1.275l-0.675,0.771l-2.815,3.212l0.467,0.466
					l0.721,0.721l1.564,1.563l0.723,0.723l0.467,0.466l3.209-2.817l0.772-0.674L9.426,15.085z M9.417,11.618
					c-0.27-0.27-0.268-0.705,0.002-0.976c0.27-0.27,0.706-0.271,0.975-0.002c0.271,0.272,0.272,0.71,0.002,0.979
					C10.126,11.891,9.688,11.89,9.417,11.618z M9.324,14.457l-1.15-1.15l1.071-1.07l0.575,0.574l0.575,0.575L9.324,14.457z
					 M11.013,12.237c0.27-0.27,0.707-0.271,0.977,0c0.27,0.27,0.27,0.707,0,0.977c-0.271,0.27-0.708,0.27-0.978,0
					C10.742,12.944,10.743,12.507,11.013,12.237z"/>
			</g>
			<g>
				<path d="M6.058,11.76c-0.607-0.245-1.698-0.185-2.486,0.256c0.117,0.037,0.225,0.097,0.317,0.181l0,0
					c0.194,0.172,0.291,0.41,0.289,0.651c0.393-0.189,0.821-0.242,1.11-0.223L6.058,11.76z"/>
				<path d="M0.107,14.562c-0.144,0.144-0.144,0.38,0.002,0.526c0.144,0.145,0.381,0.144,0.524,0l0.141-0.141l0.427,0.432
					l-0.139,0.139c-0.146,0.146-0.144,0.384,0,0.527c0.146,0.146,0.382,0.146,0.528,0l0.399-0.399
					c0.021-0.021,0.038-0.044,0.055-0.07c0.002-0.002,0.003-0.003,0.005-0.005c0.182-0.182,0.182-0.474,0-0.655l-0.044-0.045
					l1.12-1.12l-0.003-0.056c-0.143-0.031-0.28-0.096-0.396-0.201c-0.011-0.011-0.022-0.022-0.034-0.034
					c-0.134-0.135-0.215-0.301-0.243-0.479l-1.166,1.167L1.23,14.096c-0.178-0.182-0.473-0.18-0.652,0
					c-0.011,0.011-0.02,0.024-0.032,0.036C0.535,14.143,0.52,14.15,0.51,14.163L0.107,14.562z M0.51,14.163"/>
				<circle cx="3.335" cy="12.818" r="0.562"/>
			</g>
		</g>
		<g>
			<path d="M18.788,19.199v-1.188l-0.087-0.078C18.599,18,18.48,18.042,18.35,18.049c-0.013,0-0.027,0-0.04,0
				c-0.137,0-0.266-0.038-0.376-0.104v1.197c-0.432,0.15-0.743,0.557-0.743,1.042h2.205C19.396,19.752,19.147,19.378,18.788,19.199
				L18.788,19.199z M18.788,19.199"/>
			<path d="M17.934,15.829v0.868c0.099-0.06,0.214-0.095,0.335-0.102c0.198-0.011,0.379,0.058,0.517,0.177l-0.039-0.944
				L17.934,15.829z"/>
			<circle cx="18.293" cy="17.32" r="0.469"/>
		</g>
		<g>
			<path d="M22.844,17.651l-0.584-1.047c-0.061,0.113-0.154,0.208-0.274,0.275c-0.011,0.006-0.025,0.014-0.035,0.019
				c-0.118,0.058-0.242,0.08-0.363,0.071l-0.038,0.109l0.578,1.036c-0.226,0.333-0.261,0.781-0.052,1.156L24,18.197
				C23.765,17.776,23.295,17.57,22.844,17.651L22.844,17.651z M22.844,17.651"/>
			<path d="M20.125,16.178l0.897,0.295c-0.077-0.165-0.094-0.357-0.029-0.545c0.039-0.115,0.105-0.216,0.19-0.295l-0.836-0.237
				L20.125,16.178z"/>
			<circle cx="21.645" cy="16.235" r="0.469"/>
		</g>
	</g>
	<g>
		<path d="M7.125,8.435c0-0.197,0.137-0.34,0.323-0.34c0.197,0,0.323,0.143,0.323,0.34c0,0.192-0.126,0.339-0.323,0.339
			C7.256,8.774,7.125,8.627,7.125,8.435z M7.262,7.652L7.186,5.023h0.526L7.634,7.652H7.262z"/>
		<path d="M8.385,8.435c0-0.197,0.137-0.34,0.323-0.34c0.197,0,0.323,0.143,0.323,0.34c0,0.192-0.126,0.339-0.323,0.339
			C8.517,8.774,8.385,8.627,8.385,8.435z M8.522,7.652L8.446,5.023h0.526L8.895,7.652H8.522z"/>
	</g>
</g>
</svg>
